<?xml version="1.0" encoding="utf-8"?>
<!DOCTYPE svg PUBLIC "-//W3C//DTD SVG 20010904//EN" "http://www.w3.org/TR/2001/REC-SVG-20010904/DTD/svg10.dtd">
<svg version="1.0" xmlns="http://www.w3.org/2000/svg" width="1876px" height="376px" viewBox="0 0 1876 376" preserveAspectRatio="xMidYMid meet">
 <g fill="#000000">
  <path d="M838.1 345 c-1.3 -1.1 -3.1 -2 -4.1 -2 -2.6 0 -8 -6.6 -8 -9.7 0 -1.5 -0.8 -3.5 -1.7 -4.6 -1.5 -1.6 -1.8 -4.5 -2.2 -19.9 -0.2 -11.5 0.1 -19.5 0.8 -21.9 0.6 -2.2 1.6 -5.8 2.3 -8.1 2 -7.3 7.8 -18.1 12 -22.4 2.2 -2.3 4.5 -5.3 5.2 -6.5 0.6 -1.3 2.1 -2.8 3.4 -3.4 1.2 -0.5 2.2 -1.4 2.2 -2 0 -1.4 9.3 -10.5 10.7 -10.5 0.6 0 1.5 -0.9 1.8 -2 0.4 -1.1 1.5 -2 2.6 -2 2.2 0 3.6 -1.2 5.7 -4.9 1.4 -2.3 1.3 -2.3 -3 -1.7 -2.4 0.4 -11 0.9 -19.1 1.2 -17.4 0.7 -18.4 0.4 -26.7 -8 -3 -3.1 -5.9 -5.6 -6.5 -5.6 -1.3 0 -13.6 -12.5 -15.8 -16.2 -0.9 -1.5 -1.7 -4.5 -1.7 -6.6 0 -2.2 -0.6 -4.5 -1.4 -5.1 -0.8 -0.7 -1.7 -3 -2.1 -5.2 -0.4 -2.1 -1.1 -4.1 -1.6 -4.5 -0.5 -0.3 -0.9 -2.6 -0.9 -5.1 0 -2.9 -0.5 -5 -1.5 -5.7 -0.9 -0.7 -1.8 -3.6 -2.1 -7.3 -0.4 -3.5 -1.1 -6.3 -1.5 -6.3 -0.5 0 -0.9 -1.3 -0.9 -3 0 -1.6 -0.4 -3 -1 -3 -0.5 0 -1 -0.9 -1 -2 0 -1.1 -0.4 -2 -1 -2 -0.5 0 -1 -2.2 -1 -5 0 -4.9 -0.1 -5 -3 -5 -2.5 0 -3 -0.4 -3 -2.5 0 -1.8 0.5 -2.5 2 -2.5 1.1 0 2 -0.4 2 -1 0 -1.3 6.7 -1.3 7.2 0.1 0.4 1.1 18 -3 18.6 -4.3 0.2 -0.5 3 -0.8 6.2 -0.8 3.2 0 6.2 -0.4 6.5 -1 0.4 -0.6 6 -1 13.6 -1 l12.9 0 0 20.9 c0 19.9 0.1 21.2 2.2 24.8 3.3 5.7 4.2 6.3 9.2 6.3 3.8 0 5.2 -0.5 7.9 -3.2 1.8 -1.8 4 -5.3 4.7 -7.8 0.7 -2.5 2.2 -6.2 3.2 -8.2 2.7 -5.5 2.6 -22.4 -0.2 -27.3 -1.1 -2 -2 -4.9 -2 -6.5 l0 -3 11.3 0 c9.3 0 12.1 -0.4 15.5 -2 6 -2.9 15.1 -2.8 18 0.3 1.9 2 2.2 3.5 2.2 10.3 0 4.4 0.4 8.4 1 9 0.5 0.5 1.1 6.7 1.2 13.7 l0.3 12.7 6.2 -5 c3.4 -2.7 6.6 -5 7 -5 0.4 0 2.6 -1.4 4.7 -3 2.2 -1.7 5 -3 6.3 -3 1.3 0 2.3 -0.4 2.3 -1 0 -0.5 0.9 -1 1.9 -1 1.1 0 2.3 -0.4 2.6 -1 0.3 -0.5 2.4 -1 4.6 -1 3.4 0 3.9 0.3 3.9 2.3 0 1.3 0.4 2.7 0.8 3.3 0.9 0.9 3 7.7 5.2 16 0.5 2.3 1.7 4.7 2.5 5.4 0.8 0.7 1.5 2.7 1.5 4.6 0 1.8 0.5 3.6 1 3.9 0.6 0.3 1 1.9 1 3.6 0 1.6 0.5 2.9 1 2.9 0.6 0 1 1.1 1 2.4 0 1.4 0.5 2.8 1 3.1 0.6 0.3 1 1.7 1 3.1 0 2 -0.5 2.4 -3 2.4 -1.6 0 -3 0.5 -3 1 0 0.6 -1.3 1 -3 1 -1.6 0 -3 0.5 -3 1 0 0.6 -1.5 1 -3.3 1 -2.2 0 -4.7 1.1 -7.3 3 -2.1 1.6 -4.9 3 -6.1 3 -1.2 0 -2.5 0.5 -2.8 1 -0.3 0.6 -1.3 1 -2.1 1 -0.8 0 -3 1.6 -4.9 3.5 l-3.5 3.4 0 29.7 c0 29.4 -0.6 35.8 -3.6 39.4 -0.7 0.8 -1.5 3.2 -1.9 5.3 -0.4 2 -1.1 4 -1.6 4.3 -0.5 0.3 -0.9 1.1 -0.9 1.9 0 0.8 -1.3 3.7 -3 6.5 -1.6 2.8 -3 5.7 -3 6.5 0 0.8 -0.4 1.5 -1 1.5 -0.5 0 -1 0.8 -1 1.8 0 0.9 -0.9 2.3 -2 3 -1.1 0.7 -2 2.3 -2 3.7 0 1.4 -0.6 3.5 -1.2 4.7 -3.9 6.5 -18.1 20.8 -20.8 20.8 -1.1 0 -2 0.5 -2 1 0 0.6 -1.3 1 -2.9 1 -1.8 0 -3.5 0.8 -4.3 1.9 -1.2 1.7 -3.9 2.6 -12.1 3.8 -2 0.3 -4 0.9 -4.3 1.4 -0.3 0.5 -5.6 0.9 -11.7 0.9 -9.6 -0.1 -11.5 -0.3 -13.6 -2z m21.1 -3.9 c1.3 -0.5 5 -1.5 8.3 -2.2 3.3 -0.7 6.9 -2.1 8.1 -3.1 1.1 -1 2.7 -1.8 3.5 -1.8 0.9 0 3.7 -1.1 6.5 -2.4 5 -2.5 8.9 -6.1 14 -13.1 1.6 -2.2 3.2 -4.2 3.5 -4.5 1.2 -1 2.9 -4.9 2.9 -6.8 0 -1.1 0.7 -2.5 1.5 -3.2 2 -1.6 12.1 -22 13 -26.1 0.4 -1.9 1.3 -4.1 2 -4.9 2.8 -3.4 3.5 -11.3 3.5 -40.5 l0 -29.6 3.3 -3.2 c1.9 -2 5.5 -4 8.8 -5 3.1 -1 7.2 -2.9 9 -4.3 1.8 -1.3 4.5 -2.4 6 -2.4 1.5 0 3.1 -0.4 3.4 -1 0.3 -0.5 1.4 -1 2.4 -1 1 0 3.2 -0.7 4.7 -1.5 1.6 -0.8 2.3 -1.5 1.7 -1.5 -0.8 0 -1.3 -1.4 -1.3 -3.4 0 -1.9 -0.4 -3.8 -1 -4.1 -0.5 -0.3 -1 -2.1 -1 -3.9 0 -1.9 -0.7 -3.9 -1.5 -4.6 -0.8 -0.7 -2 -3.1 -2.5 -5.4 -1.8 -6.9 -4 -14 -5.2 -16.3 -1.1 -2.3 -3.8 -3.2 -3.8 -1.3 0 0.6 -1.2 1 -2.7 1 -2.6 0 -9.3 3.8 -9.3 5.3 0 0.4 -0.7 0.7 -1.6 0.7 -1.5 0 -11.5 7.6 -12.2 9.3 -0.2 0.4 -2.8 0.7 -5.8 0.7 l-5.4 0 0 -13.4 c0 -7.9 -0.4 -13.7 -1 -14.1 -0.5 -0.3 -1 -4.3 -1 -8.7 0 -6.2 -0.4 -8.6 -1.7 -10 -1.7 -1.9 -5.8 -2.4 -6.8 -0.8 -0.3 0.6 -1.5 1 -2.6 1 -1 0 -1.9 0.5 -1.9 1 0 0.6 -4.3 1 -11 1 -10 0 -12.9 0.7 -10 2.5 0.6 0.4 1 6.7 1 15.5 0 13.2 -0.2 15.3 -2 18.2 -1.1 1.8 -2 4.3 -2 5.5 0 1.2 -0.4 2.5 -1 2.8 -0.5 0.3 -1 1.5 -1 2.6 0 1.1 -1.6 3.5 -3.5 5.4 l-3.4 3.5 -9.6 0 c-10.7 0 -10.7 0 -14.3 -7 -2.1 -4.2 -2.2 -5.7 -2.2 -24.7 l0 -20.3 -8.5 0 c-5 0 -8.5 0.4 -8.5 1 0 0.6 -2.7 1 -6 1 -3.3 0 -6 0.4 -6 1 0 0.6 -1.1 1 -2.4 1 -1.3 0 -5.3 0.9 -8.8 2 -3.4 1.1 -7.8 2 -9.5 2 -2.8 0 -3.3 0.3 -3.3 2.5 0 1.4 0.5 2.5 1 2.5 0.6 0 1 0.9 1 2 0 1.1 0.5 2 1 2 0.6 0 1 1.4 1 3 0 1.7 0.5 3 1 3 0.6 0 1 1.5 1 3.3 0 5.8 1.2 10.7 2.6 10.7 1 0 1.4 1.5 1.4 5.4 0 3 0.4 5.7 0.9 6 0.5 0.4 1.2 2.4 1.6 4.5 0.4 2.2 1.3 4.5 2.1 5.2 0.8 0.6 1.4 2.9 1.4 5.1 0 2.1 0.8 5.1 1.7 6.6 2.2 3.7 13.5 15.2 14.8 15.2 0.6 0 3.5 2.5 6.5 5.6 8.1 8.1 9.9 8.8 22.8 8 14.8 -0.9 19.1 -1.5 23.2 -3.4 1.9 -0.8 6.1 -1.8 9.3 -2 l5.7 -0.4 0 3.4 c0 2.7 -0.5 3.7 -2.4 4.6 -3.5 1.6 -9.6 7.2 -9.6 8.9 0 2.1 -2.5 4.3 -5 4.3 -1.3 0 -2.4 0.8 -2.7 2 -0.3 1.1 -1.3 2 -2.1 2 -2.2 0 -10.2 8 -10.2 10.2 0 1.1 -0.7 1.8 -1.8 1.8 -2.1 0 -4.2 1.8 -4.2 3.7 0 0.7 -1.8 3 -4.1 5 -4.2 3.8 -11.9 17.6 -11.9 21.2 0 1.1 -0.4 2.3 -1 2.6 -0.5 0.3 -1 2.1 -1 3.9 0 1.7 -0.5 3.7 -1.1 4.3 -0.8 0.8 -1 5.8 -0.7 16.2 0.3 12.3 0.7 15.3 2.1 16.9 0.9 1 1.7 3 1.7 4.5 0 3.1 4.5 8.7 7 8.7 1 0 2.8 0.9 4.1 2 1.8 1.4 3.9 1.9 8.6 2 3.4 0 7.2 -0.4 8.5 -0.9z"/>
  <path d="M876.3 293.8 c-2.1 -1 -2.3 -1.8 -2.3 -8.5 0 -4.2 0.4 -7.3 1 -7.3 0.6 0 1 -0.9 1 -2 0 -1.1 0.5 -2 1 -2 0.6 0 1 -1.3 1 -3 0 -1.6 0.3 -3 0.8 -3 0.4 0 1.5 -1.8 2.5 -4 1.4 -3.4 2.1 -4 4.7 -4 2.5 0 3 0.4 3 2.5 0 1.4 -0.4 2.5 -1 2.5 -0.5 0 -1 0.9 -1 2 0 1.1 -0.4 2 -1 2 -0.5 0 -1 0.9 -1 2 0 1.1 -0.4 2 -1 2 -0.5 0 -1 1.4 -1 3 0 1.7 -0.4 3 -1 3 -0.5 0 -1 0.9 -1 2 0 1.1 -0.4 2 -1 2 -1.3 0 -1.3 4.7 0 5.5 1.3 0.8 6 -0.5 6 -1.7 0 -0.6 1 -2.2 2.3 -3.7 1.2 -1.5 3.1 -5.4 4.1 -8.7 1 -3.2 2.7 -7.5 3.6 -9.5 1.7 -3.5 1.7 -3.7 -0.1 -5 -1.1 -0.7 -1.9 -2.4 -1.9 -3.6 0 -2 0.5 -2.3 3.5 -2.3 1.9 0 3.5 0.5 3.5 1 0 0.6 0.9 1 2 1 1.7 0 2 0.7 2 4.3 0 3.1 -0.5 4.6 -2 5.7 -1.1 0.8 -2 2.2 -2 3.2 0 1 -0.4 1.8 -1 1.8 -0.5 0 -1 1.1 -1 2.4 0 3 -4.3 12.8 -6.4 14.5 -0.9 0.7 -1.6 2.2 -1.6 3.2 0 1.2 -0.7 1.9 -2 1.9 -1.1 0 -2 0.5 -2 1 0 1.3 -7.9 1.2 -10.7 -0.2z"/>
  <path d="M62 302.1 c0 -1.6 -0.4 -3.1 -0.8 -3.3 -1.7 -0.7 -7.1 -15.8 -9.2 -25.8 -1.2 -5.8 -2.8 -11.6 -3.5 -13 -0.6 -1.4 -2 -8.3 -2.9 -15.5 -1 -7.1 -2.6 -15 -3.6 -17.5 -1 -2.5 -4.1 -13.4 -7 -24.2 -2.8 -10.9 -5.7 -21.3 -6.5 -23.2 -3.1 -7.4 -6.5 -26.6 -6.5 -36.8 l0 -10 4.1 -3.6 c2.2 -2 7.1 -4.9 10.7 -6.4 6.3 -2.7 7.4 -2.8 22.4 -2.8 9.4 0 15.9 0.4 16.3 1 0.3 0.6 2.5 1 4.8 1 4 0.1 4.3 0.3 6.5 4.8 1.2 2.6 2.2 5.5 2.2 6.5 0 1 0.9 3.7 2 5.9 1.1 2.3 2 5.7 2 7.7 0 3.9 0.6 5.9 6.7 22.6 2.4 6.6 5 14 5.6 16.5 3.2 11.4 9.3 30 9.8 30 1 0 5.8 -11.4 7.1 -16.7 0.6 -2.6 1.3 -10.2 1.5 -16.7 0.5 -13.4 1.3 -15 8.5 -16.2 2.1 -0.4 4.3 -1.3 4.9 -2 0.6 -0.8 1.6 -1.4 2.1 -1.4 1.7 0 13.5 -5.9 14.7 -7.4 1.6 -1.9 9.2 -2.1 12.4 -0.3 2.6 1.4 5.7 4.6 5.7 5.9 0 0.4 0.7 0.8 1.5 0.8 0.8 0 1.5 0.6 1.5 1.4 0 0.7 3.2 5.5 7 10.5 3.9 5.1 7 10 7 11 0 0.9 1.2 2.8 2.6 4.2 1.4 1.3 3.7 4.4 5 6.9 1.4 2.5 3.6 6.3 4.9 8.5 2.4 3.8 2.5 3.9 2.5 1.3 0 -1.5 0.4 -3 1 -3.3 0.6 -0.3 1 -1.5 1 -2.5 0 -1.1 0.9 -3.5 2 -5.5 1.1 -2 2 -4.2 2 -5 0 -0.8 0.9 -3 2 -5 1.1 -2 2 -4.4 2 -5.5 0 -1 0.5 -2.2 1 -2.5 0.6 -0.3 1 -1.7 1 -3 0 -2.7 6.5 -18.1 8.6 -20.6 0.8 -0.8 1.4 -2.2 1.4 -3.1 0 -0.8 0.8 -2.6 1.8 -3.9 1 -1.3 2.4 -4.9 3.1 -7.9 0.7 -3 1.6 -6.4 2.1 -7.5 0.5 -1.1 1.8 -8.7 2.8 -17 1.8 -13.6 2.4 -16 6.5 -25 2.5 -5.5 5.2 -10.2 5.9 -10.4 0.6 -0.2 2 -1.2 3.1 -2.1 1.5 -1.5 4.7 -1.9 19 -2.4 9.5 -0.3 22 -0.9 28 -1.2 l10.7 -0.6 0 3.4 c0 1.9 -0.4 3.8 -0.8 4.4 -0.5 0.5 -1.4 3.6 -2.1 6.9 -0.7 3.3 -1.6 6.9 -2.1 8 -0.4 1.1 -1.3 4.7 -2 8 -0.6 3.3 -2 8.7 -3 12 -1 3.3 -2.1 7.5 -2.4 9.3 l-0.6 3.4 3.1 -2.6 c1.7 -1.4 3.7 -2.6 4.5 -2.6 0.8 0 2.4 -0.9 3.6 -2 1.3 -1.2 3.6 -2 5.4 -2 1.8 0 3.6 -0.4 3.9 -1 0.3 -0.5 2.6 -1 5.1 -1 2.4 0 4.4 -0.4 4.4 -1 0 -1.6 9.9 -1.2 11.6 0.4 0.8 0.8 1.4 3.3 1.4 5.5 0 2.2 0.4 4.3 1 4.6 0.6 0.3 1 1.7 1 3.1 0 1.4 0.5 4.5 1.1 7 l1.2 4.5 2 -4 c1.2 -2.3 2.6 -4.1 3.3 -4.1 0.7 0 1.5 -0.8 1.8 -1.7 0.4 -1 3 -4.3 5.9 -7.3 2.8 -3 6.1 -7.2 7.2 -9.3 1.3 -2.5 2.6 -3.7 4.1 -3.7 1.2 0 2.7 -0.6 3.3 -1.4 1.6 -1.9 13.5 -7.6 18.6 -8.8 2.2 -0.6 7.2 -1.2 11 -1.5 3.9 -0.2 7.4 -0.9 8 -1.4 0.5 -0.5 4.4 -0.9 8.6 -0.9 l7.7 0 3.6 4.2 c2 2.3 3.6 4.5 3.6 5 0 0.4 0.6 0.8 1.3 0.8 0.8 0 2.4 3.3 3.9 8.2 2.5 7.9 2.6 8.1 2.7 4.1 0.1 -3.9 0.4 -4.3 2.5 -4.3 2.5 0 2.5 0 3 13.3 0.3 7.2 0.8 16.5 1.1 20.5 0.5 4.9 0.3 7.2 -0.4 7.2 -0.8 0 -1.1 7.4 -1.1 23.9 0 14.9 -0.4 24.2 -1 24.6 -0.5 0.3 -1 3 -1 6 0 3 -0.4 5.7 -1 6 -0.6 0.3 -1 5.2 -1 11.1 0 6.3 -0.4 10.4 -1 10.4 -0.6 0 -1 3 -1 6.9 0 3.9 -0.4 7.3 -1 7.6 -1.9 1.2 -1.1 12 1.1 16.2 2.6 5 6.1 6.3 16.5 6.3 9.9 0 29.6 -2 30.9 -3.1 0.5 -0.5 5.6 -0.9 11.3 -0.9 l10.4 0 -0.6 -17.7 c-0.7 -23 -1.8 -33.9 -4.4 -43.8 -1.1 -4.4 -2.8 -11.8 -3.7 -16.5 -2.4 -12.3 -3.8 -15 -7.9 -15 -4.7 0 -6.3 -2.4 -7.5 -11 -0.6 -4.1 -1.6 -9.7 -2.1 -12.5 -0.6 -2.7 -1.3 -7.6 -1.7 -10.9 l-0.6 -5.8 -7.6 0.6 c-4.2 0.4 -11.8 0.9 -16.8 1.2 l-9.3 0.6 0 -2.5 c0 -2.7 0.7 -2.9 24.3 -4.3 l9.7 -0.6 0 -2.8 c0 -1.6 0.6 -3.1 1.3 -3.3 0.6 -0.3 -1.1 -0.6 -3.9 -0.6 -5.1 -0.1 -5.2 -0.2 -10.3 -6.3 l-5.1 -6.3 0 -17.2 c0 -10.9 0.4 -17.3 1 -17.3 1.7 0 1.2 -5.7 -0.6 -6.4 -2.5 -1 -9.4 -0.7 -9.4 0.4 0 0.6 -1.1 1 -2.5 1 -2.2 0 -2.5 -0.4 -2.5 -3.5 l0 -3.5 7.8 0 c9.9 0 25 2.5 27.2 4.5 0.9 0.8 2.4 1.5 3.3 1.5 0.9 0 4 2.2 7 5 4.9 4.5 5.5 5.5 6.5 11.3 1.5 7.9 1.6 22.7 0.2 22.7 -0.5 0 -1 1.4 -1 3 0 1.7 -0.3 3 -0.7 3 -0.5 0 -2.3 1.3 -4.1 2.8 l-3.3 2.7 23.2 -0.3 23.1 -0.3 -0.8 -7.7 c-1 -8.3 -1 -11.7 -0.6 -46.9 l0.2 -23.3 2.6 0 2.5 0 -0.1 31.8 c-0.1 17.9 0.3 34.5 0.9 38.2 0.6 3.6 1.1 8 1.1 9.8 l0 3.2 -21.2 0 c-25 0 -34.8 0.7 -34.8 2.6 0 0.7 -0.5 1.4 -1.2 1.6 -0.8 0.3 -0.1 2.1 2 5.2 1.8 2.6 3.2 5.4 3.2 6.2 0 3.1 3.3 15 4.6 16.5 0.8 0.8 1.4 2.5 1.4 3.7 0 1.1 0.5 2.4 1 2.7 0.6 0.3 1 1.6 1 2.8 0 2.2 0.2 2.2 13.2 1.9 7.3 -0.2 14 -0.8 15 -1.3 0.9 -0.5 3.9 -0.9 6.7 -0.9 l5.1 0 0 4.4 c0 2.4 -0.4 4.6 -0.9 4.8 -1.2 0.4 -1.7 41.9 -0.7 52.3 0.5 4.4 1.4 9.1 2.1 10.5 0.7 1.4 1.5 4.8 1.8 7.7 0.3 2.9 1.3 6.5 2.1 8.2 0.9 1.6 1.6 4.2 1.6 5.6 0 3.1 10.3 14.5 13 14.5 1 0 2.8 0.8 4.1 1.9 4.9 3.7 11.2 6.1 16.6 6.1 4.8 0 5.3 -0.2 5.3 -2.2 0 -4.2 3.4 -12 5.7 -13.1 1.3 -0.5 2.5 -1.8 2.8 -2.8 0.3 -1 2.1 -2.7 4 -3.9 4.6 -2.8 5 -4.7 1.6 -6.4 -1.5 -0.8 -3.5 -3.2 -4.5 -5.4 -1 -2.2 -2.6 -4.4 -3.6 -4.8 -1 -0.5 -3.4 -3.1 -5.5 -5.7 -3.5 -4.7 -5 -7.5 -7.6 -14.6 -0.7 -1.8 -2.2 -4.7 -3.4 -6.5 -3.4 -5.1 -4.8 -12.9 -5.2 -30.3 -0.4 -15.9 -0.3 -16.3 1.7 -16.3 1.1 0 2 -0.6 2 -1.4 0 -1.5 3 -2.6 7.2 -2.6 1.5 0 3 -0.5 3.3 -1 0.3 -0.5 2.1 -1 3.8 -1 1.8 0 4.7 -0.9 6.5 -2 l3.2 -2 0 -26.5 0 -26.5 -7.5 0 c-4.3 0 -7.5 0.4 -7.5 1 0 0.6 -1.1 1 -2.4 1 l-2.5 0 -0.5 -20.2 c-0.8 -29.4 -1.6 -41.8 -2.7 -41.8 -0.5 0 -0.9 -0.9 -0.9 -2 0 -1.9 -0.7 -2 -13 -2 l-13 0 0 -2.5 0 -2.5 15.5 0 c14.8 0 15.5 0.1 15.5 2 0 1.1 0.4 2 0.9 2 1 0 1.8 11.7 2.7 41.3 l0.5 18.7 10 0 9.9 0 0 31.3 0 31.2 -3.5 2.3 c-1.9 1.2 -5 2.2 -7 2.2 -1.9 0 -3.5 0.5 -3.5 1 0 0.6 -1.5 1 -3.4 1 -4.4 0 -6.6 0.9 -6.6 2.6 0 0.8 -0.9 1.4 -2.1 1.4 -1.9 0 -2 0.4 -1.6 11.8 0.5 13.3 2.1 21.2 5.2 25.8 1.2 1.8 2.7 4.7 3.4 6.5 3.6 9.7 9.1 18.2 12.4 19.4 1 0.4 2.7 2.5 3.9 4.8 1.8 3.8 7.4 8.7 9.9 8.7 0.5 0 0.9 1.4 0.9 3 0 3.4 -2.5 6.4 -7.8 9.5 -1.7 1.1 -3.5 2.8 -3.8 3.8 -0.3 1 -1.6 2.3 -2.8 2.8 -2.5 1.2 -5.6 8.5 -5.6 13.2 l0 2.7 -9.8 0 c-10.2 0 -15 -1.4 -21.1 -6.1 -1.3 -1.1 -3.1 -1.9 -4.1 -1.9 -2.8 0 -14 -12.4 -14 -15.5 0 -1.4 -0.7 -3.9 -1.5 -5.5 -0.9 -1.6 -1.8 -5.1 -2.1 -7.7 -0.3 -2.7 -1.2 -6.4 -1.9 -8.3 -2.4 -6.3 -3.4 -22.8 -2.8 -46.5 l0.6 -23 -13.7 0.3 c-7.6 0.2 -13.6 0.7 -13.6 1.3 0 0.5 -0.6 0.9 -1.4 0.9 -1.1 0 -0.8 2.6 1.4 13.3 1.5 7.2 3.3 15 3.9 17.2 1.9 6.4 3.2 21.3 3.8 45.3 l0.5 22.2 -10.6 0 c-5.8 0 -11.4 0.4 -12.4 0.9 -5.1 2.7 -42.8 4.2 -50 1.9 -3 -0.9 -4.2 -2.1 -6 -5.9 -2.1 -4.3 -2.3 -5.8 -1.8 -14.6 0.8 -15.1 1.6 -22.6 2.6 -24.8 0.5 -1.1 1.1 -6.3 1.4 -11.5 0.2 -5.2 1 -12.4 1.6 -16 0.7 -3.6 1.4 -16.3 1.7 -28.2 0.3 -19.1 0.2 -21.8 -1.2 -21.8 -0.8 0 -1.5 0.5 -1.5 1 0 0.6 -1.7 1 -3.7 1 -5.4 0 -20.5 3.1 -22.3 4.5 -0.8 0.7 -2.5 1.6 -3.7 1.9 -1.3 0.4 -2.3 1.4 -2.3 2.2 0 0.8 -1 1.4 -2.5 1.4 -1.4 0 -3.4 0.9 -4.5 2 -1.1 1.1 -2.4 2 -3 2 -0.5 0 -1.3 0.7 -1.7 1.5 -0.5 0.8 -3 2.8 -5.6 4.5 -2.6 1.6 -4.7 3.6 -4.7 4.5 0 0.8 -0.8 1.5 -1.8 1.5 -2 0 -6.2 4.3 -6.2 6.3 0 0.7 -0.9 1.9 -2 2.7 -1.1 0.8 -2 2.2 -2 3.1 0 0.9 -0.8 1.9 -1.8 2.1 -1.4 0.4 -2.1 2.2 -3 7.6 -0.7 3.9 -1.2 9.4 -1.2 12.2 0 2.7 -0.4 5.8 -0.9 6.8 -1.3 2.4 -3.1 19.4 -3.1 29.1 0 4.7 -0.4 8.1 -1 8.1 -0.6 0 -1 3.9 -1 9.6 0 6.9 -0.4 9.9 -1.4 11 -1.2 1.1 -6.9 1.4 -32.4 1.4 l-31 0 -0.6 -15.2 c-0.3 -8.4 -1 -18.7 -1.6 -22.8 -1.1 -8.3 -2.8 -33.7 -3.6 -56 -0.5 -14.1 -2 -23.4 -3.6 -22.4 -0.4 0.3 -0.8 1.4 -0.8 2.5 0 1.1 -2.1 8.4 -4.6 16.1 -2.5 7.8 -5.4 16.9 -6.4 20.2 -3 9.9 -7.7 22.5 -12 31.6 -4.9 10.6 -6.9 18.1 -7.7 29 -0.6 8 -1.7 11 -4.2 11 -0.6 0 -6.4 1.8 -12.9 4 -11 3.9 -27.2 12.8 -27.2 15.1 0 0.5 -0.9 0.9 -2 0.9 -1.1 0 -2 0.5 -2 1 0 0.6 -1.6 1 -3.5 1 -3 0 -3.5 -0.3 -3.5 -2.3 0 -1.4 -1.6 -3.9 -4 -6.2 -2.2 -2.1 -4 -4.4 -4 -5 0 -0.6 -1.2 -1.8 -2.7 -2.7 -4.3 -2.5 -17.3 -16.4 -17.3 -18.4 0 -1.1 -0.7 -2.8 -1.5 -3.8 -1.4 -1.9 -1.5 -1.8 -1.5 1.1 0 1.8 -0.4 3.5 -1 3.8 -0.5 0.3 -1 3 -1 6 0 2.9 -0.4 5.5 -1 5.7 -0.5 0.2 -2 6 -3.2 13 -1.9 10.7 -2.6 12.8 -4 12.8 -1 0 -1.8 0.5 -1.8 1 0 0.7 -16.2 1 -46.5 1 l-46.5 0 0 -2.9z m88 -3.1 c0 -0.5 0.8 -1 1.8 -1 1.6 0 2.1 -1.6 3.7 -10.7 1 -6 2.3 -12.1 3.1 -13.8 0.7 -1.6 1.5 -5 1.8 -7.5 0.9 -8.1 1.8 -12 2.7 -12 0.5 0 0.9 -0.9 0.9 -2 0 -1.6 0.7 -2 3.3 -2 2.8 0 3.4 0.6 5.5 4.8 1.2 2.6 2.2 5.4 2.2 6.1 0 1.7 12.5 14.6 16.7 17.2 1.8 1.1 3.3 2.5 3.3 3.1 0 0.6 1.9 3.2 4.3 5.7 l4.2 4.6 9 -6 c6.9 -4.6 11.8 -6.9 21 -10 6.6 -2.1 12.5 -4.4 13.1 -5 0.6 -0.5 1.4 -4.6 1.7 -9 0.8 -10.5 2.9 -18.2 7.7 -28.5 4.3 -9.3 9.1 -21.8 12.1 -32 1 -3.6 3.7 -11.9 5.9 -18.5 2.2 -6.6 4.8 -16 5.9 -21 1.1 -4.9 3.1 -12.5 4.5 -16.7 l2.4 -7.8 -2.4 0 c-1.9 0 -2.4 -0.5 -2.4 -2.4 0 -2.1 0.6 -2.5 3.2 -2.8 3.2 -0.3 3.4 -0.6 5 -7.3 1 -3.8 2.7 -9.9 3.7 -13.5 1.1 -3.6 2.5 -9.2 3.1 -12.5 0.6 -3.3 1.5 -6.9 2 -8 1.2 -2.8 3.1 -12.7 2.6 -13.3 -0.3 -0.2 -4.5 0 -9.4 0.7 -4.9 0.6 -14.7 1.1 -21.8 1.1 -11.8 0 -13.1 0.2 -14.4 2 -0.8 1.1 -2.2 2 -3.2 2 -1 0 -1.8 0.5 -1.8 1.1 0 0.5 -1.9 4.9 -4.1 9.7 -3.7 7.7 -4.3 10.2 -6.1 23.6 -1 8.3 -2.3 16 -2.8 17.1 -0.8 1.9 -1.3 4 -2.7 10.9 -0.3 1.6 -1.4 3.7 -2.4 4.7 -1.1 1.1 -1.9 2.9 -1.9 4 0 1.2 -0.6 2.7 -1.4 3.3 -2.1 1.7 -8.6 17.3 -8.6 20.6 0 1.7 -0.4 3 -1 3 -0.5 0 -1 1.4 -1 3 0 1.7 -0.4 3 -1 3 -0.5 0 -1 0.9 -1 2 0 1.1 -0.4 2 -1 2 -0.5 0 -1 1.4 -1 3 0 1.7 -0.4 3 -1 3 -0.5 0 -1 0.9 -1 2 0 1.1 -0.4 2 -1 2 -0.5 0 -1 1.4 -1 3 0 1.7 -0.4 3 -1 3 -0.5 0 -1 1.2 -1 2.6 0 3.4 -2.2 5.4 -5.9 5.4 -2.6 0 -3.4 -0.7 -5.6 -4.7 -5.5 -10.2 -8.2 -14.4 -10.8 -17.1 -1.5 -1.5 -2.7 -3.6 -2.7 -4.5 0 -3.3 -21.4 -29.7 -24.1 -29.7 -0.5 0 -1.4 0.9 -2.1 2 -0.7 1.1 -2 2 -3 2 -0.9 0 -1.9 0.4 -2.2 0.9 -0.3 0.4 -2.7 1.6 -5.3 2.6 -2.6 0.9 -5.2 2.3 -5.8 3 -0.5 0.6 -2.7 1.4 -4.9 1.8 -6.7 1.1 -7.6 2.9 -7.6 16.1 0 6.6 -0.4 11.7 -1 12.1 -0.5 0.3 -1 2 -1 3.7 0 1.8 -1.8 6.9 -4 11.4 -2.2 4.6 -4 8.6 -4 8.9 0 1.6 -3.2 3.6 -5.2 3.3 -1.8 -0.3 -2.8 -2.5 -7 -15.8 -2.7 -8.5 -5.6 -17.7 -6.3 -20.5 -0.8 -2.7 -3.4 -10.4 -5.8 -17 -6.1 -16.7 -6.7 -18.7 -6.7 -22.6 0 -2 -0.9 -5.4 -2 -7.7 -1.1 -2.2 -2 -5 -2 -6.2 0 -1.2 -1 -3.9 -2.2 -6 -2 -3.5 -2.7 -4 -6 -4 -2 0 -4 -0.4 -4.3 -1 -0.4 -0.6 -5.6 -1 -12.3 -1 -10.7 0 -12.4 0.3 -18.5 2.9 -4 1.6 -8.3 4.3 -10.3 6.5 -3 3.2 -3.4 4.2 -3.4 9 0 5.9 4.2 26.7 6.5 32.2 0.8 1.9 3.7 12.3 6.5 23.2 2.9 10.8 6 21.7 7 24.2 1 2.5 2.6 10.4 3.6 17.5 0.9 7.2 2.3 14.1 2.9 15.5 0.7 1.4 2.3 7.2 3.5 13 2.3 10.6 7.5 25 9.1 25 0.5 0 0.9 1.4 0.9 3 l0 3 41.5 0 c27 0 41.5 -0.3 41.5 -1z m202.6 -22.4 c1 -1.1 1.4 -4.1 1.4 -11 0 -5.7 0.4 -9.6 1 -9.6 0.6 0 1 -3.4 1 -8.2 0.1 -4.6 0.7 -13 1.6 -18.8 0.8 -5.8 1.9 -14.7 2.4 -19.9 1.2 -11.7 2.6 -17.1 4.5 -17.1 0.8 0 1.5 -0.8 1.5 -1.8 0 -1 0.9 -2.4 2 -3.2 1.1 -0.8 2 -2 2 -2.8 0 -1.6 5 -6.1 6.8 -6.2 0.6 0 1.2 -0.6 1.2 -1.3 0 -0.7 2.2 -2.6 5 -4.2 2.7 -1.7 5.2 -3.8 5.6 -4.7 0.3 -1 1 -1.8 1.6 -1.8 0.5 0 2.1 -0.9 3.5 -2 1.4 -1.1 3.4 -2 4.4 -2 1.1 0 1.9 -0.6 1.9 -1.4 0 -0.8 1.2 -1.7 2.8 -2.1 1.5 -0.3 3.4 -1.2 4.2 -1.9 1.7 -1.4 16.7 -4.6 21.7 -4.6 1.7 0 3.5 -0.5 3.8 -1 0.3 -0.5 2.2 -1 4.1 -1 l3.4 0 0 -6.1 c0 -4.1 -0.5 -6.6 -1.4 -7.3 -0.7 -0.6 -2.9 -6.3 -4.8 -12.7 -2 -6.4 -4.4 -12.5 -5.4 -13.6 -1.1 -1.1 -3.2 -3.7 -4.7 -5.7 -2.4 -3.1 -3.4 -3.6 -6.7 -3.6 -2.2 0 -4 0.5 -4 1 0 0.6 -3.1 1 -7.4 1 -4.1 0 -7.8 0.5 -8.1 1 -0.3 0.6 -2.1 1 -3.8 1 -1.8 0 -5.6 1.4 -8.6 3 -3 1.7 -6 3 -6.8 3 -0.7 0 -1.8 0.9 -2.5 2 -0.7 1.1 -2.2 2 -3.4 2 -2.1 0 -5.4 3.7 -5.4 6 0 0.6 -2.7 3.6 -6 6.8 -3.3 3.2 -6 6.6 -6 7.5 0 0.9 -0.6 1.7 -1.4 1.7 -1.6 0 -4.6 4.2 -4.6 6.5 0 0.8 -0.4 1.5 -1 1.5 -0.5 0 -1 2.3 -1 5.1 0 4.9 -0.1 5 -2.7 4.7 -2.5 -0.3 -2.9 -1.1 -5.4 -9.3 -1.5 -4.9 -2.8 -10.4 -2.8 -12.2 -0.1 -1.7 -0.5 -3.5 -1.1 -3.8 -0.5 -0.3 -1 -2.2 -1 -4.1 0 -2 -0.7 -4.2 -1.5 -5 -0.8 -0.9 -1.5 -1.1 -1.5 -0.5 0 0.6 -2.1 1.1 -5 1.1 -2.7 0 -5 0.5 -5 1 0 0.6 -1.7 1 -3.8 1 -2.6 0 -4.2 0.6 -5.2 2 -0.8 1.1 -2.5 2 -3.9 2 -1.5 0 -4.1 1.8 -7.4 5 -2.7 2.8 -5.6 5 -6.3 5 -1.4 0 -7.5 18.2 -6.4 19 0.4 0.3 1.7 3.7 2.8 7.5 1.6 5.1 2.3 10.9 2.6 21.5 0.8 22 2.5 47.6 3.6 56 0.6 4.1 1.3 14.1 1.6 22.3 l0.6 14.7 26 0 c21.1 0 26.2 -0.3 27.4 -1.4z m141.4 -105.5 c0 -0.6 -0.4 -1.3 -1 -1.6 -0.5 -0.3 -1 -1.7 -1 -2.9 0 -1.3 -0.7 -2.9 -1.6 -3.7 -1.4 -1.1 -1.5 -0.9 -0.9 2.7 0.8 4 2.1 6.4 3.6 6.4 0.5 0 0.9 -0.4 0.9 -0.9z m-5.3 -55.1 c3.8 -2.9 5.3 -4.7 5.3 -6.5 0 -1.3 0.5 -2.7 1 -3 1.3 -0.8 1.3 -6.8 -0.1 -14.1 -1.2 -5.9 -4.8 -11.4 -7.6 -11.4 -0.7 0 -1.3 -0.7 -1.3 -1.5 0 -0.8 -1.2 -1.8 -2.7 -2.1 -1.6 -0.4 -3.5 -1.2 -4.3 -2 -0.8 -0.7 -2.8 -1.6 -4.3 -1.9 -3.5 -0.9 -5.6 1.5 -5.7 6.3 0 1.7 -0.4 3.2 -1 3.2 -0.6 0 -1 4.9 -1 12.8 l0 12.7 4.7 5.8 c6 7.4 9 7.7 17 1.7z"/>
  <path d="M1735.3 277.8 c-2.9 -1.8 -5.3 -3.8 -5.3 -4.4 0 -0.6 -0.9 -1.9 -2 -2.9 -1.1 -1 -2 -2.6 -2 -3.7 0 -1 -0.5 -1.8 -1.1 -1.8 -0.7 0 -0.9 -4 -0.5 -12.7 0.7 -18 1.4 -23.3 3.5 -27.3 1 -1.9 2.1 -5.1 2.5 -7.1 0.4 -2.5 1.3 -3.8 2.6 -4.2 1.1 -0.3 2.9 -2.6 4.2 -5.1 1.2 -2.5 2.8 -4.6 3.4 -4.6 0.7 0 1.6 -0.9 1.9 -2 0.3 -1.1 1.3 -2 2.1 -2 0.8 0 1.4 -0.4 1.4 -1 0 -0.5 1.4 -2.5 3.1 -4.5 l3.1 -3.5 -7.7 0 c-8.9 0 -20.5 -1.9 -20.5 -3.3 0 -0.5 -1.8 -2.9 -4 -5.3 -2.2 -2.4 -4 -5.2 -4 -6.2 0 -1 -0.9 -2.7 -2 -3.7 -1.1 -1 -2 -2.3 -2 -3 0 -0.7 -0.9 -2 -2.1 -3.1 -1.2 -1 -3.2 -4 -4.5 -6.6 -1.3 -2.6 -2.8 -4.9 -3.3 -5.2 -0.5 -0.4 -1.7 -3.2 -2.6 -6.4 -0.9 -3.1 -3 -8.1 -4.6 -11 -1.6 -3 -2.9 -6.9 -2.9 -8.8 0 -1.9 -0.4 -3.4 -1 -3.4 -0.5 0 -1 -1.3 -1 -2.8 0 -1.6 -1.3 -5.6 -3 -9 -1.6 -3.4 -3 -7.1 -3 -8.2 0 -1.1 -0.4 -2 -1 -2 -0.5 0 -1 -1.6 -1 -3.6 0 -2.7 -0.5 -3.7 -2 -4.1 -2.3 -0.6 -2.6 -3.8 -0.6 -5.9 1.7 -1.6 5.6 -1.9 5.6 -0.4 0 1.3 4.7 1.3 5.5 0 0.3 -0.5 3.5 -1 7.1 -1 3.6 0 6.4 -0.4 6.4 -1 0 -0.6 4.2 -1 10.5 -1 l10.5 0 0 2.9 c0 1.6 0.7 4.1 1.5 5.7 1.9 3.8 15.4 17.4 17.1 17.4 0.8 0 1.4 0.5 1.4 1 0 0.6 0.7 1 1.5 1 0.8 0 1.5 -0.7 1.5 -1.5 0 -0.8 0.4 -1.5 1 -1.5 1.7 0 7.9 -6 9.5 -9.2 2.9 -6 1.3 -15.1 -3.8 -20.8 -1.5 -1.6 -2.7 -3.9 -2.7 -5 0 -1.9 0.6 -2 21.5 -2 l21.5 0 0 6.3 c0 8.6 1 13.7 2.6 13.7 1 0 1.4 1.5 1.4 5.6 0 3.1 0.4 7.3 0.9 9.3 2.9 11 3.6 13.1 4.1 13.1 3.1 -0.1 13.2 -5 21.1 -10.3 3.1 -2 6.8 -3.7 8.3 -3.7 1.4 0 2.6 -0.4 2.6 -1 0 -0.5 1.1 -1 2.5 -1 2.3 0 2.5 0.4 2.5 4 0 2.2 0.4 4 0.8 4 0.5 0 1.7 1.7 2.6 3.9 1 2.1 2.7 4.9 3.9 6.3 3.4 3.7 4.7 6.5 4.7 9.7 0 1.7 0.5 3.3 1 3.6 1.5 0.9 1.2 8.4 -0.4 10.1 -0.9 0.9 -3.6 1.4 -7.5 1.4 -3.3 0 -6.3 0.5 -6.6 1 -0.3 0.6 -1.7 1 -3 1 -1.3 0 -2.7 0.5 -3 1 -0.3 0.6 -1.7 1 -3.1 1 -3 0 -11.4 7.5 -11.4 10.1 0 1.1 -0.4 1.9 -1 1.9 -0.6 0 -1 13.3 -1 38 0 24.7 -0.4 38 -1 38 -0.5 0 -1 1 -1 2.3 0 3.3 -2.3 7.7 -4 7.7 -1.8 0.1 -10 7.3 -10 8.9 0 0.6 -0.5 1.1 -1.1 1.1 -1.2 0 -5.5 2.5 -18.1 10.8 -4.5 2.8 -8.8 5.2 -9.6 5.2 -1.8 0 -7.9 1.8 -10.4 3.1 -1 0.5 -6.2 0.9 -11.5 0.9 -9.3 0 -10.1 -0.2 -15 -3.2z m28.3 -4.6 c4 -1.1 10.3 -4.1 14.6 -6.9 4.2 -2.6 9.9 -6.1 12.7 -7.8 2.8 -1.6 5.1 -3.6 5.1 -4.2 0 -0.7 0.4 -1.3 1 -1.3 0.5 0 2.7 -1.6 4.9 -3.5 2.1 -1.9 4.3 -3.5 4.8 -3.5 1.2 0 3.3 -4.4 3.3 -7 0 -1 0.5 -2.2 1 -2.5 0.6 -0.4 1 -14.3 1 -38.6 0 -24.6 0.4 -37.9 1 -37.9 0.6 0 1 -0.6 1 -1.3 0 -0.7 1.9 -3.1 4.3 -5.4 5 -4.9 16.6 -9.3 24.6 -9.3 2.7 0 5.2 -0.3 5.4 -0.7 0.9 -1.7 -0.6 -9.2 -2.1 -11 -2 -2.3 -3.5 -4.6 -6.2 -9.5 -1.1 -2.1 -2.5 -3.8 -3 -3.8 -0.6 0 -1 -1.3 -1 -3 0 -1.6 -0.3 -3 -0.6 -3 -1.2 0 -10.4 6.3 -10.4 7.2 0 0.4 -0.8 0.8 -1.9 0.8 -1 0 -3 0.9 -4.4 2 -1.4 1.1 -3.4 2 -4.5 2 -1.2 0 -2.4 0.5 -2.7 1 -0.3 0.6 -3.5 1 -6.9 1 -6.1 0 -6.4 -0.1 -6.9 -2.7 -0.3 -1.6 -1.1 -4.8 -1.7 -7.3 -0.6 -2.5 -1.4 -7.4 -1.7 -11 -0.3 -4 -1.1 -6.9 -2 -7.6 -1.1 -0.7 -1.7 -3.7 -2.1 -10.2 l-0.5 -9.2 -13.8 0 -13.8 0 1.2 3.3 c1.5 4.4 2.2 22.7 0.8 22.7 -0.6 0 -1.1 0.8 -1.1 1.8 -0.1 0.9 -2.3 3.5 -5 5.7 -2.8 2.2 -5 4.6 -5 5.3 0 0.8 -1.9 1.2 -6.1 1.2 -5.3 0 -6.4 -0.3 -9.2 -3 -1.8 -1.6 -3.6 -3 -4 -3 -1.1 0 -3.7 -2.6 -3.7 -3.7 0 -0.5 -1.6 -2.5 -3.5 -4.3 -4.1 -4 -6.5 -8.3 -6.5 -11.7 0 -2.1 -0.4 -2.3 -5.5 -2.3 -3 0 -5.5 0.5 -5.5 1 0 0.6 -3 1 -7 1 -4 0 -7 0.4 -7 1 0 0.6 -1.8 1 -4 1 -2.9 0 -4 0.4 -4 1.5 0 0.8 0.5 1.5 1 1.5 0.6 0 1 1.1 1 2.5 0 1.4 1.4 5.3 3 8.7 1.7 3.4 3 7.2 3 8.5 0 1.3 0.5 2.3 1 2.3 0.6 0 1 1.8 1 3.9 0 2.5 1.1 6 2.9 9.3 1.6 2.9 3.7 7.9 4.6 11 0.9 3.2 2.1 6 2.6 6.4 0.5 0.3 2 2.6 3.3 5.2 1.3 2.6 3.3 5.6 4.5 6.6 1.2 1.1 2.1 2.4 2.1 3.1 0 0.7 0.8 2 1.9 2.9 1 0.9 2.1 2.9 2.5 4.4 0.3 1.5 2.3 4.6 4.5 6.9 5.1 5.2 9.7 6.3 27.6 6.3 l13.5 0 0 2.5 c0 1.8 -0.5 2.5 -2 2.5 -1.1 0 -2 0.5 -2 1 0 0.6 -0.8 1 -1.9 1 -2.1 0 -10.1 8.2 -10.1 10.5 0 0.8 -0.7 1.5 -1.6 1.5 -0.9 0 -1.8 0.9 -2.1 2 -0.3 1.1 -1.1 2 -1.9 2 -0.7 0 -2.5 2.3 -4 5 -1.5 2.8 -3.3 5 -4 5 -1.4 0 -2.4 2.2 -2.4 5.2 0 1.1 -0.9 3.2 -1.9 4.7 -1.9 2.6 -2.5 6.8 -3.7 23.4 -0.4 5.2 -0.2 7.7 0.5 7.7 0.6 0 1.1 1 1.1 2.3 0.1 2.7 4.2 7.6 9.5 11.2 3.5 2.3 4.7 2.6 10 2.2 3.3 -0.2 9.2 -1.3 13.1 -2.5z"/>
  <path d="M1770 227.6 c0 -7.2 0.4 -10.3 1.9 -13.3 1.1 -2.1 2.5 -5.3 3.1 -7 0.9 -2.5 1.9 -3.3 3.6 -3.3 2.1 0 2.4 0.5 2.4 3.4 0 1.9 -0.4 3.8 -1 4.1 -0.5 0.3 -1 1.7 -1 3.1 0 1.3 -0.4 2.4 -1 2.4 -0.5 0 -1 0.9 -1 2 0 1.1 -0.4 2 -1 2 -0.5 0 -1 2.5 -1 5.6 0 4.6 0.2 5.3 1.3 4.2 0.7 -0.7 1.6 -2.1 2 -3 0.3 -1 1.3 -1.8 2.1 -1.8 0.7 0 1.6 -0.9 1.9 -2 0.3 -1.1 1.1 -2 1.9 -2 0.7 0 1.9 -1.2 2.6 -2.7 1.4 -3.2 1.6 -8.3 0.2 -8.3 -0.5 0 -1 -1.6 -1 -3.5 0 -2.9 0.4 -3.5 2.1 -3.5 3.9 0 4.9 2.3 4.9 10.9 0 4.7 -0.4 8.1 -1 8.1 -0.5 0 -1 0.9 -1 2 0 1.3 -0.7 2 -2 2 -1.3 0 -2 0.7 -2 2 0 1.3 -0.7 2 -2 2 -1.2 0 -2 0.7 -2 1.6 0 2.9 -2.7 4.4 -7.9 4.4 l-5.1 0 0 -9.4z"/>
  <path d="M677 271.6 c-0.8 -0.7 -5.3 -2.1 -10 -3.1 -4.7 -0.9 -9.2 -2.3 -10 -3 -2.6 -2.2 -7.8 -4.5 -10.2 -4.5 -2.4 0 -12.8 -9.5 -12.8 -11.6 0 -0.6 -0.9 -1.9 -2 -2.9 -1.1 -1 -2 -2.1 -2 -2.5 0 -0.4 -1.8 -3.5 -4 -6.8 -2.2 -3.3 -4 -7 -4 -8.2 0 -1.3 -0.6 -3.1 -1.4 -3.9 -0.7 -0.9 -2.1 -4.6 -3.1 -8.2 -1.5 -5.6 -1.7 -9.9 -1.3 -27.2 0.3 -17.7 0.6 -20.8 2.1 -22.4 0.9 -1.1 1.7 -2.6 1.7 -3.5 0 -0.8 0.9 -2.7 2 -4.1 1.1 -1.4 2 -3.1 2 -3.8 0 -1.7 6.2 -10.9 9.4 -13.8 1.4 -1.4 2.6 -3 2.6 -3.8 0 -0.7 0.4 -1.3 0.8 -1.3 0.5 0 3.2 -2 6.1 -4.5 2.9 -2.5 5.8 -4.5 6.5 -4.5 0.7 0 3.4 -1.1 6.2 -2.4 2.8 -1.4 11 -3.5 19.4 -5.1 8 -1.5 15.9 -3.1 17.6 -3.6 1.7 -0.5 9.7 -0.9 17.9 -0.9 12.6 0 15.9 0.3 21.7 2.2 3.9 1.3 6.8 2.8 6.8 3.5 0 0.8 0.7 1.6 1.6 2 3.1 1.2 6 4.8 9.8 12.3 2.1 4.1 4.4 8.2 5.1 9 2.3 2.9 3.5 10.9 3.5 24 0 9.5 -0.4 13.5 -1.3 14.3 -2.2 2.1 -5.6 3.7 -7.6 3.7 -1.1 0 -2.3 0.5 -2.6 1 -0.3 0.6 -1.9 1 -3.6 1 -1.6 0 -2.9 0.5 -2.9 1 0 0.6 -1.7 1 -3.8 1 -2.1 0 -4.2 0.4 -4.7 0.8 -0.6 0.5 -6.4 2.3 -13 4.1 -21.3 5.7 -23.7 6.5 -24.2 7.8 -0.4 1 -3.4 1.3 -11.5 1.3 l-11 0 0.6 4 c0.3 2.2 0.9 5.8 1.2 7.9 0.3 2.2 1.5 4.7 2.5 5.7 1 0.9 1.9 2.5 1.9 3.4 0 3 2.7 7.1 5.5 8.6 3.2 1.6 17.5 2 17.5 0.4 0 -0.5 0.6 -1 1.2 -1 0.7 0 3.5 -0.9 6.3 -1.9 2.7 -1.1 6.2 -2.3 7.7 -2.6 1.5 -0.3 5 -2.5 7.8 -5 2.8 -2.5 5.4 -4.5 5.8 -4.5 0.4 0 1.3 -1.3 2 -3 1.1 -2.5 1.9 -3 4.8 -3 2.1 0 3.4 0.5 3.4 1.3 0 0.7 0.9 2.3 2 3.5 1.1 1.2 2 2.5 2 3 0 1.1 7.4 8.2 8.6 8.2 0.6 0 2 1.1 3.2 2.5 1.8 2.1 2.2 3.8 2.2 9.5 0 4 -0.4 7 -1 7 -0.5 0 -1 0.9 -1 2 0 1.3 -0.7 2 -2 2 -1.1 0 -2 0.7 -2 1.5 0 2 -6.5 8.5 -8.4 8.5 -0.8 0 -2.6 1.4 -3.9 3 -1.4 1.7 -3.2 3 -3.9 3 -0.7 0 -2.4 0.9 -3.8 2 -2.3 1.8 -4.2 2 -28.5 2 -20.6 0 -26.4 -0.3 -27.5 -1.4z m52.9 -6.1 c2.6 -1.4 5.8 -3.7 7.1 -5 1.3 -1.4 2.7 -2.5 3.2 -2.5 1.2 0 7.3 -6.2 8.1 -8.3 0.3 -0.9 1.3 -1.7 2.2 -1.7 0.8 0 1.5 -0.9 1.5 -2 0 -1.1 0.5 -2 1 -2 0.6 0 1 -1.1 1 -2.5 0 -1.4 -0.4 -2.5 -1 -2.5 -0.5 0 -1 -0.7 -1 -1.5 0 -0.9 -1 -1.9 -2.2 -2.4 -2.5 -0.9 -11.1 -9.6 -12.1 -12.1 -0.4 -1.2 -0.6 -1.1 -0.6 0.3 -0.1 0.9 -0.7 1.7 -1.5 1.7 -0.8 0 -4.1 2.3 -7.2 5 -3.8 3.3 -6.6 5 -8.3 5 -1.5 0 -4.4 0.9 -6.6 2 -2.2 1.1 -4.5 2 -5.2 2 -0.7 0 -1.3 0.5 -1.3 1 0 1.7 -23.2 1.3 -26.8 -0.5 -3.1 -1.6 -6.2 -6.3 -6.2 -9.5 0 -0.9 -0.9 -2.5 -1.9 -3.4 -1.9 -1.7 -2.7 -5.3 -3.7 -15.8 -0.3 -3.2 -1 -5.8 -1.5 -5.8 -0.5 0 -0.9 -1.1 -0.9 -2.5 l0 -2.5 11.9 0 c8.7 0 12.2 -0.4 13 -1.3 1.1 -1.4 5.1 -2.7 24.6 -7.8 6.6 -1.8 12.4 -3.6 13 -4 0.5 -0.5 2.4 -0.9 4.2 -0.9 1.8 0 3.3 -0.4 3.3 -1 0 -0.5 1 -1 2.3 -1 3.1 0 12.3 -3.5 14.2 -5.3 3 -3 1.5 -25.4 -2 -29.7 -0.7 -0.8 -3 -4.9 -5.1 -9 -2.1 -4.1 -4.2 -7.7 -4.7 -7.9 -0.5 -0.2 -2.5 -1.9 -4.5 -3.8 -5.6 -5.4 -12.3 -7.3 -26.3 -7.3 -6.8 0 -12 0.4 -12.4 1 -0.3 0.6 -2.2 1 -4 1 -1.9 0 -5.4 0.4 -7.7 1 -2.4 0.5 -8.9 1.9 -14.5 3.1 -5.7 1.2 -10.3 2.6 -10.3 3.1 0 0.4 -0.9 0.8 -2 0.8 -1.1 0 -2 0.5 -2 1 0 0.6 -1.1 1 -2.4 1 -2.4 0 -13.6 8.5 -13.6 10.3 0 0.5 -1.1 1.8 -2.5 2.9 -3.1 2.4 -9.5 12 -9.5 14.2 0 0.9 -0.9 2.5 -2 3.6 -1.1 1.1 -2 3 -2 4.1 0 1.2 -0.8 2.7 -1.7 3.4 -2.6 1.9 -3.2 32.1 -0.8 41.3 1 3.7 2.4 7.4 3.1 8.3 0.8 0.8 1.4 2.6 1.4 3.9 0 1.2 1.8 4.9 4 8.2 2.2 3.3 4 6.4 4 6.8 0 0.4 0.9 1.5 2 2.5 1.1 1 2 2.3 2 2.9 0 2.1 9.4 10.6 11.8 10.6 2.4 0 7.6 2.3 10.2 4.5 0.8 0.7 5.3 2.1 10 3 4.7 1 9.2 2.4 10 3.1 1.1 1.1 6.2 1.4 22.7 1.4 20.9 0 21.4 -0.1 26.2 -2.5z"/>
  <path d="M682 170.5 c0 -1.8 0.5 -2.5 1.9 -2.5 1.1 0 2.3 -0.4 2.6 -1 0.3 -0.5 3.7 -1 7.4 -1 4.7 0 8 -0.6 10.9 -2 2.2 -1.1 4.6 -2 5.2 -2 1.8 0 4 -2.7 4 -4.8 0 -1.3 -1.2 -2.6 -3.4 -3.6 -1.8 -0.8 -3.9 -2.2 -4.6 -3.1 -0.9 -1.1 -3.4 -1.5 -9.7 -1.5 -7.6 0 -8.6 0.2 -10.8 2.5 -1.4 1.3 -2.5 3.1 -2.5 4 0 0.8 -0.4 1.5 -1 1.5 -0.5 0 -1 1.1 -1 2.5 0 1.4 0.5 2.5 1 2.5 0.6 0 1 1.1 1 2.5 0 2.2 -0.4 2.5 -3.5 2.5 l-3.5 0 0 -6.5 c0 -4.6 0.6 -7.5 2.1 -10.1 3.5 -6.4 3.6 -6.4 17.7 -6.4 11.2 0 13.1 0.2 14.5 1.8 0.9 1 3.2 2.4 5.2 3.2 l3.5 1.4 0 6.9 c0 7.3 -1.2 9.7 -4.9 9.7 -1.1 0 -2.3 0.5 -2.6 1 -0.3 0.6 -1.5 1 -2.6 1 -1 0 -1.9 0.5 -1.9 1 0 0.6 -3.3 1 -8 1 -4.7 0 -8 0.4 -8 1 0 0.6 -2 1 -4.5 1 -4.1 0 -4.5 -0.2 -4.5 -2.5z"/>
  <path d="M1020 246.2 c0 -22.9 -1.2 -32.7 -7.6 -61.2 -1.5 -7 -4.8 -24.6 -5.9 -32 -0.4 -2.5 -1.8 -7 -3 -10 -1.3 -3 -2.6 -8.2 -3 -11.5 -1.3 -12.5 -2.8 -21.1 -4.1 -23.6 -0.7 -1.4 -1.8 -6.4 -2.5 -11 -0.6 -4.6 -1.5 -11.1 -2 -14.4 -0.5 -3.3 -1.2 -7.8 -1.5 -10 -0.3 -2.2 -1 -4.4 -1.5 -4.9 -1.9 -2.1 -1 -6.5 1.9 -8.3 1.5 -0.9 4.7 -3.6 7.2 -5.9 4.9 -4.7 25.4 -15.4 29.5 -15.4 1.3 0 2.7 -0.4 3 -1 0.4 -0.6 7.5 -1 17.9 -1 15.8 0 17.6 0.2 19.9 2 1.4 1.1 2.9 2 3.5 2 0.5 0 1.7 0.9 2.7 2 1 1.1 2.4 2 3.2 2 1.6 0 11.1 4.6 13.3 6.5 0.8 0.7 2.6 1.6 4 2 1.4 0.4 5 3.2 8 6.1 3 2.9 7.4 6.6 9.7 8.3 2.2 1.6 4.4 3.4 4.8 4 0.3 0.6 1.7 1.1 3 1.1 1.5 0 2.6 0.7 3 2 0.3 1.1 1.3 2 2.1 2 0.8 0 1.4 0.6 1.4 1.3 0 0.8 0.9 2.2 2 3.2 1.1 1 2 2.9 2 4.2 0 1.3 0.9 4.2 2 6.6 4.3 9.2 8.2 22.9 9.6 34.2 0.3 2.2 1 4.9 1.5 6 0.6 1.2 0.8 11.8 0.5 27 -0.4 25.6 -1.1 34.5 -2.7 34.5 -0.5 0 -0.9 0.7 -0.9 1.5 0 0.9 -1.5 3.8 -3.4 6.5 -1.9 2.8 -3.7 6.4 -4.1 8.1 -0.4 1.8 -1.6 3.5 -3 4.1 -1.2 0.5 -3.4 3.5 -5 6.9 -1.6 3.2 -4.6 7.5 -6.7 9.6 -2.1 2 -3.8 4.3 -3.8 5 0 1.8 -7.7 8.8 -13.8 12.5 -3 1.8 -7.6 4.8 -10.4 6.6 -3 1.9 -6.3 3.2 -8.3 3.2 -1.8 0 -5.9 1.3 -9.1 3 -5.1 2.6 -7 3 -14.1 3 -5 0 -8.3 0.4 -8.3 1 0 0.7 -5.5 1 -15.5 0.9 l-15.5 -0.1 0 -18.6z m26.5 12.8 c0.3 -0.5 4.2 -1 8.5 -1 6.6 0 8.8 -0.5 14.2 -3 3.4 -1.6 7.6 -3 9.1 -3 2.6 0 7.7 -2.6 19.2 -9.9 4.9 -3.1 12.5 -10.1 12.5 -11.6 0 -0.6 1.6 -2.7 3.6 -4.6 2 -1.8 5.1 -6.4 7 -10.1 1.9 -3.7 4.2 -6.9 5.3 -7.3 1.1 -0.3 2.2 -1.9 2.6 -3.5 0.4 -1.6 1.8 -4.6 3.1 -6.6 3.2 -4.7 6 -11 6.9 -15.4 1.2 -5.9 1.7 -45.2 0.6 -47.5 -0.5 -1.1 -1.2 -3.8 -1.5 -6 -1.4 -11.3 -5.3 -25 -9.6 -34.2 -1.1 -2.4 -2 -5.3 -2 -6.5 0 -2.5 -7.9 -11.8 -9.9 -11.8 -1.4 0 -7 -4.3 -14.6 -11.2 -2.9 -2.7 -5.7 -4.8 -6.3 -4.8 -0.7 0 -1.2 -0.6 -1.2 -1.4 0 -0.8 -1.3 -1.7 -3 -2.1 -1.6 -0.4 -3.2 -1.1 -3.6 -1.6 -0.7 -1.3 -12 -6.9 -13.7 -6.9 -0.8 0 -2.2 -0.9 -3.2 -2 -1 -1.1 -2.2 -2 -2.7 -2 -0.6 0 -2.1 -0.9 -3.5 -2 -2.3 -1.8 -4.1 -2 -15.9 -2 -8.3 0 -13.4 0.4 -13.4 1 0 0.6 -1.4 1 -3.1 1 -2.7 0 -10.1 3.3 -22.5 9.8 -1.7 1 -5.7 4.1 -8.9 7 -5.4 5 -5.7 5.4 -5.1 9 1.5 10 2.5 16.4 3.5 24.1 0.7 4.6 1.8 9.6 2.5 11 1.3 2.5 2.8 11.1 4.1 23.6 0.4 3.3 1.7 8.5 3 11.5 1.2 3 2.6 7.5 3 10 1.1 7.4 4.4 25 5.9 32 6.3 28.2 7.6 38.3 7.6 59.8 0 16.4 0.1 17.2 1.9 17.2 1.1 0 2.3 0.5 2.6 1 0.3 0.6 4.2 1 8.5 1 4.3 0 8.2 -0.4 8.5 -1z"/>
  <path d="M1070 183.5 c0 -0.8 -0.4 -1.5 -0.9 -1.5 -0.5 0 -2.3 -1.1 -3.9 -2.5 -3.1 -2.6 -3.3 -3.3 -5.1 -18 -1.3 -10.6 -4 -22.5 -6.2 -26.7 -1 -2 -1.9 -5.8 -1.9 -8.3 0 -4.1 0.2 -4.5 2.5 -4.5 2 0 2.5 0.5 2.5 2.5 0 1.4 0.9 4.3 1.9 6.3 2.2 4.2 4.9 16.1 6.2 26.7 1.8 14.6 2 15.5 4.6 17.3 1.4 0.9 3.3 2.5 4.4 3.5 1 0.9 2.5 1.7 3.2 1.7 2.6 0 7.8 -3.2 8.7 -5.4 0.4 -1.1 2.4 -3.8 4.4 -5.9 2 -2 3.6 -4.4 3.6 -5.2 0 -0.8 0.4 -1.5 0.8 -1.5 1 0 3.2 -11.2 3.2 -16 0 -3.7 -5.3 -13 -9.7 -17.1 -1.5 -1.5 -5.1 -3.9 -8 -5.3 -4.8 -2.4 -6.3 -2.6 -17.3 -2.6 -7.3 0 -12 0.4 -12 1 0 0.6 -1.6 1 -3.5 1 -2.9 0 -3.5 -0.4 -3.5 -2.1 0 -4.4 1.8 -4.9 19 -4.9 15.3 0 16.3 0.1 21.3 2.6 6.6 3.3 10.9 7.4 15.3 14.5 3.1 5.1 3.4 6.4 3.4 13.3 0 8.2 -1.9 20.6 -3.2 20.6 -0.5 0 -0.8 0.8 -0.8 1.8 0 0.9 -1.8 3.2 -4 5.1 -2.2 1.9 -4 4.1 -4 4.9 0 1.8 -2.5 4.2 -4.4 4.2 -0.9 0 -1.6 0.5 -1.6 1 0 0.6 -3.2 1 -7.5 1 -6 0 -7.5 -0.3 -7.5 -1.5z"/>
  <path d="M1145.6 245.3 c-0.3 -7.6 -1 -18.1 -1.6 -23.3 -2.5 -22.6 -2.5 -22 0.3 -22 2.2 0 2.6 0.5 3.1 4.8 1.6 11.6 2.7 23.7 3.2 36 l0.6 13.4 4.2 -0.7 c2.2 -0.4 14.1 -0.9 26.3 -1.1 l22.3 -0.5 0.4 -36.2 c0.6 -49.7 0.9 -52 5.4 -60.5 5.3 -9.8 7.6 -13.2 8.7 -13.2 0.6 0 2.9 -1.8 5 -4 2.1 -2.2 4.7 -4 5.6 -4 2.4 0 8.8 -4.2 8.9 -5.8 0 -0.7 1.3 -1.5 3 -1.8 1.6 -0.4 3.2 -1.4 3.5 -2.3 0.3 -0.9 2.2 -2.4 4.3 -3.4 2 -1 6.4 -3.3 9.7 -5.2 4.5 -2.6 7.2 -3.5 10.8 -3.5 4.8 0 6.5 -1.7 2.7 -2.7 -1.1 -0.3 -2.9 -2.1 -4.1 -4 -1.2 -1.9 -4.4 -5.5 -7 -8 -3 -2.8 -4.9 -5.4 -4.9 -6.8 0 -1.2 -0.8 -2.9 -1.8 -3.8 -2 -1.9 -5.2 -2.3 -5.2 -0.7 0 0.6 -3.3 1 -8 1 -4.7 0 -8 0.4 -8 1 0 0.6 -1.1 1 -2.4 1 -3.7 0 -19.7 9.6 -28.2 17 -2.3 1.9 -5.4 4.3 -6.8 5.3 -1.4 1 -2.6 2.7 -2.6 3.7 0 1.1 -0.4 2 -1 2 -0.5 0 -1 1.8 -1 4 0 2.2 -0.4 4 -1 4 -0.5 0 -1 1.4 -1 3 0 2.6 -0.4 3 -2.6 3 -2.1 0 -2.9 -0.9 -5 -5.6 -1.4 -3.1 -3.2 -9.4 -4.1 -14 l-1.7 -8.4 -5.3 0 c-2.9 0 -5.3 0.5 -5.3 1 0 0.6 -1.3 1 -3 1 -1.6 0 -3 0.5 -3 1 0 0.6 -1 1 -2.2 1 -1.3 0 -3.8 0.9 -5.6 2 -1.8 1.1 -4.6 2 -6.2 2 -2.5 0 -3 -0.4 -3 -2.3 0 -1.9 1.1 -2.8 5.3 -4.6 2.8 -1.3 6 -2.7 6.9 -3.2 1 -0.5 2.7 -0.9 3.7 -0.9 1.1 0 2.3 -0.5 2.6 -1 0.3 -0.6 4.9 -1 10.4 -1 l9.7 0 1.3 7.8 c0.8 4.2 2 9.1 2.7 10.7 l1.2 3 0.1 -2.6 c0.1 -3.7 2.8 -8.6 5.8 -10.7 1.4 -0.9 4.4 -3.3 6.7 -5.2 7.8 -6.8 24.5 -17 27.6 -17 1 0 2.2 -0.4 2.5 -1 0.3 -0.5 4 -1 8.1 -1 4.3 0 7.4 -0.4 7.4 -1 0 -0.6 2.8 -1 6.3 -1 5.3 0 6.7 0.4 8.5 2.3 1.2 1.3 2.2 3.3 2.2 4.4 0 1.1 0.7 2.6 1.5 3.3 1.3 1.1 2.2 0.7 5.3 -2.3 2.1 -2.1 4.2 -3.7 4.8 -3.7 0.5 0 2.7 -1.8 4.8 -4 2.4 -2.5 4.7 -4 6.2 -4 1.3 0 2.4 -0.4 2.4 -1 0 -0.6 6.5 -1 17.5 -1 15.7 0 18 0.2 21.5 2 2.2 1.1 4 2.6 4 3.3 0 0.7 1.4 2.1 3 3 1.7 1 3 2.5 3 3.2 0 0.8 1.2 2.1 2.8 2.9 1.5 0.8 7.1 6 12.6 11.5 5.4 5.6 10.6 10.1 11.5 10.1 2.9 0 12.1 -2.4 12.1 -3.2 0 -0.5 0.9 -0.8 1.9 -0.8 1.1 0 2.3 -0.4 2.6 -1 0.3 -0.5 1.7 -1 3.1 -1 1.3 0 2.4 -0.4 2.4 -1 0 -0.6 2.8 -1 6.3 -1 5.8 0 6.3 0.2 7.3 2.7 2.1 5.1 3.3 8.8 3.9 12 0.3 1.7 1.2 3.7 2 4.3 0.8 0.6 1.6 2.4 2 3.9 0.3 1.6 1.7 3.9 3.1 5.1 1.3 1.3 2.4 3.2 2.4 4.3 0 1.1 0.8 2.9 1.7 4 1.8 1.9 4.9 7.2 9.9 16.5 1.7 3.1 3.5 5.2 4.5 5.2 1 0 1.9 0.5 2.1 1.1 0.4 1.1 7.9 -19.7 9.9 -27.6 1.6 -6.1 2.8 -7.5 6.7 -7.5 2.5 0 3.9 1.1 8.1 6.4 2.8 3.6 5.3 7.6 5.7 9 0.3 1.4 1.1 2.6 1.8 2.6 0.6 0.1 2.2 2.4 3.6 5.3 1.3 2.9 4.3 7.3 6.6 9.8 l4.2 4.6 0.6 -3.6 c0.4 -2 1.1 -6.7 1.5 -10.6 1.8 -15 6.2 -32.4 12.2 -48 1 -2.7 1.9 -6 1.9 -7.2 0 -2.2 0.3 -2.3 8.4 -2.3 5.4 0 9.9 -0.6 12.7 -1.7 4.1 -1.5 8.2 -2 31.7 -3.9 l8.2 -0.6 0 5 c0 6.1 -1.2 9.1 -6.3 15.6 -4.5 5.8 -9.7 15.7 -9.7 18.5 0 1 -0.6 2.1 -1.4 2.4 -0.7 0.3 -1.7 1.8 -2 3.4 -0.4 1.5 -1.4 3.5 -2.1 4.3 -0.8 0.9 -1.7 4.3 -2.1 7.5 -0.4 3.3 -1.6 7.4 -2.6 9 -1 1.7 -1.8 3.7 -1.8 4.5 0 0.9 -0.9 3.3 -2 5.5 -1.1 2.2 -2 5.3 -2 7.1 0 1.7 -0.9 5.7 -2.1 9 -1.1 3.2 -2.5 7.9 -3 10.4 -0.6 2.5 -1.4 5.9 -2 7.6 -0.5 1.7 -0.9 4.9 -0.9 7.2 0 2.3 -0.4 4.2 -1 4.2 -0.5 0 -1 1.9 -1 4.3 0 4.8 -2.1 12.4 -4.7 16.7 -1.7 2.9 -1.9 3 -10 3 -4.5 0 -8.5 0.5 -8.8 1 -0.3 0.6 -2.8 1 -5.4 1 -2.6 0 -5.1 0.4 -5.6 0.8 -1.9 1.6 -9.3 3.2 -14.9 3.2 -5.5 0 -5.6 0 -5.6 -3 0 -1.6 -0.9 -4.5 -2 -6.5 -1.1 -2 -2 -4.9 -2 -6.5 0 -1.6 -0.4 -3.2 -1 -3.5 -0.5 -0.3 -1 -1.5 -1 -2.5 0 -1.6 -0.9 -1.1 -4.5 2.3 -2.5 2.4 -4.5 4.9 -4.5 5.5 0 0.7 -1.6 2.9 -3.6 4.9 -1.9 2.1 -3.8 5 -4.1 6.6 -0.4 2.2 -1.1 2.7 -3.4 2.7 -1.6 0 -2.9 0.5 -2.9 1 0 0.6 -0.9 1 -2 1 -1.1 0 -2 0.5 -2 1 0 0.6 -3.3 1 -8 1 -4.7 0 -8 0.4 -8 1 0 0.6 -1.6 1 -3.5 1 -3 0 -3.5 -0.3 -3.5 -2.4 0 -1.3 -0.6 -2.9 -1.4 -3.5 -0.8 -0.7 -2.8 -4.1 -4.5 -7.6 -1.7 -3.5 -3.6 -6.7 -4.2 -7 -0.5 -0.4 -1.4 -1.8 -1.9 -3.1 -0.5 -1.3 -1.6 -2.4 -2.5 -2.4 -0.8 0 -1.5 -0.6 -1.5 -1.3 0 -0.8 -0.9 -2.2 -2 -3.2 -1.1 -1 -2 -2.3 -2 -2.9 0 -1.3 -9.1 -10.6 -10.4 -10.6 -1.6 0 -3.5 -2.9 -3.9 -6.1 -0.2 -1.9 -0.4 1.6 -0.5 7.6 -0.1 12.6 1.4 17.2 8.1 24.4 3.1 3.4 3.7 4.7 3.7 8.6 0 5 -2.1 7.9 -7.2 10.2 -1.6 0.7 -2.8 1.7 -2.8 2.3 0 0.5 -0.8 1 -1.8 1 -2.1 0 -4.2 1.9 -4.2 3.8 0 2.8 -2.8 4.2 -8.8 4.2 l-5.9 0 -3.2 -5 c-1.8 -2.7 -3.6 -5 -4.1 -5 -0.5 0 -1.7 -1.3 -2.7 -3 -0.9 -1.6 -2.2 -3 -2.8 -3 -0.5 0 -1.6 -1.2 -2.2 -2.7 -0.7 -1.6 -2.2 -3.4 -3.3 -4.1 -1.9 -1.1 -2.6 -0.8 -6.5 2.5 -2.4 2.1 -4.4 4.4 -4.5 5.1 0 0.6 -1.2 1.2 -2.6 1.2 -1.7 0 -2.8 0.6 -3.1 2 -0.3 1.3 -1.4 2 -2.9 2 -1.2 0 -2.6 0.5 -2.9 1 -0.3 0.6 -1.7 1 -3 1 -3.5 0 -11.5 2.3 -11.5 3.2 0 0.4 -5.8 0.8 -12.8 0.8 -12.6 0 -18.2 -1.1 -18.2 -3.6 0 -0.6 -1.2 -2.1 -2.6 -3.5 -2.9 -2.7 -5.4 -8 -5.4 -11.5 0 -1.2 -0.4 -2.6 -1 -2.9 -0.6 -0.4 -1 -8.4 -1 -20.9 l0 -20.2 2.9 -5.7 c1.6 -3.1 3.4 -6.9 4 -8.4 1.4 -3.7 3 -6.1 6.9 -10.6 1.7 -2 3.2 -4.2 3.2 -4.7 0 -0.6 0.5 -1 1 -1 0.6 0 2.3 -1.1 3.7 -2.4 1.5 -1.4 4.4 -2.8 6.5 -3.1 2.1 -0.4 3.8 -1.1 3.8 -1.6 0 -0.5 4 -0.9 8.9 -0.9 5 0 9.3 -0.4 9.6 -1 0.3 -0.5 1.7 -1 3.1 -1 1.3 0 2.4 -0.4 2.4 -1 0 -0.5 1.2 -1 2.6 -1 4.6 0 5.4 -1.9 5.4 -13.5 0 -8 -0.4 -11 -1.5 -12.1 -2.2 -2.2 -12.4 -7.4 -14.6 -7.4 -1 0 -1.9 -0.4 -1.9 -1 0 -0.6 -2.7 -1 -6.1 -1 -6.2 0 -8.9 1.3 -8.9 4.4 0 1.3 -1.2 1.6 -6 1.6 -6.3 0 -12.7 2.5 -19.5 7.5 -1.6 1.2 -3.8 2.5 -4.7 2.8 -1 0.4 -1.8 1.3 -1.8 2.2 0 1 -0.9 1.5 -2.6 1.5 -1.7 0 -2.8 0.6 -3.1 2 -0.3 1.1 -1.2 2 -1.9 2 -0.8 0 -2.3 0.9 -3.4 2 -1.1 1.1 -3.1 2 -4.4 2 -1.5 0 -3.7 1.5 -6 4 -2 2.2 -3.9 4 -4.3 4 -1.3 0 -6.3 6.8 -6.3 8.4 0 0.9 -0.4 1.6 -1 1.6 -0.5 0 -1 0.9 -1 2 0 1.1 -0.4 2 -1 2 -0.5 0 -1 0.9 -1 2 0 1.1 -0.4 2 -1 2 -0.6 0 -1 3.6 -1 8.9 0 5 -0.4 9.3 -1 9.6 -0.6 0.4 -1 13.8 -1 37 l0 36.4 -22.2 0.5 c-12.3 0.3 -26.4 0.8 -31.5 1.1 l-9.1 0.6 -0.6 -13.8z m208.7 3.4 c0.7 -0.7 1.7 -2.2 2.3 -3.2 0.6 -1.1 2 -2.5 3 -3 6 -3.2 13.7 -9.5 11.6 -9.5 -0.6 0 -1.2 -0.6 -1.2 -1.3 0 -0.8 -1.2 -2.4 -2.6 -3.8 -1.4 -1.3 -3.7 -4.8 -5 -7.7 -2.2 -4.7 -2.4 -6.6 -2.4 -19 0 -11.2 0.4 -14.7 2 -19.2 1.1 -3.1 2 -8 2 -11.2 0 -3.1 0.5 -8.1 1.1 -10.9 0.9 -4 0.9 -7.1 0 -12.3 -1.5 -9 -4 -17.2 -6.1 -20 -0.9 -1.1 -2.4 -5 -3.4 -8.6 -1.6 -5.9 -2.6 -7.3 -9.9 -14.8 -4.5 -4.6 -9.9 -9.5 -11.9 -10.8 -2.1 -1.3 -3.8 -3 -3.8 -3.7 0 -0.7 -1.3 -2.1 -3 -3 -1.6 -1 -3 -2.4 -3 -3.1 0 -0.7 -1.6 -2 -3.5 -2.9 -2.8 -1.3 -6.4 -1.7 -16.5 -1.7 -8 0 -13 0.4 -13 1 0 0.6 -1.2 1 -2.6 1 -1.7 0 -3.9 1.4 -6.5 4 -2.2 2.2 -4.5 4 -5.2 4 -1.6 0 -8.2 6.7 -7 7.1 0.4 0.2 1.6 2 2.6 3.9 2.5 5 5.5 6 17.9 6 6.5 0 10.8 0.4 10.8 1 0 0.6 0.6 1 1.4 1 1.6 0 13.5 6 15.4 7.7 0.8 0.8 1.2 5.6 1.2 16.8 0 17 -0.4 18.5 -5.4 18.5 -1.4 0 -2.6 0.5 -2.6 1 0 0.6 -1.3 1 -3 1 -1.6 0 -3 0.5 -3 1 0 0.6 -3.7 1 -9 1 -4.9 0 -9 0.4 -9 0.9 0 0.5 -2 1.2 -4.4 1.5 -3 0.5 -5 1.5 -6.2 3.1 -1 1.4 -2.3 2.5 -2.8 2.5 -1.4 0 -8.5 8.4 -8.6 10.1 0 0.9 -0.7 1.9 -1.5 2.3 -0.8 0.3 -1.5 1.1 -1.5 1.8 0 0.7 -1.2 3.6 -2.5 6.3 -1.4 2.8 -2.5 5.6 -2.5 6.3 0 0.6 -0.4 1.2 -1 1.2 -0.6 0 -1 6.3 -1 16.9 0 10.3 0.4 17.2 1 17.6 0.6 0.3 1 1.7 1 2.9 0 3.9 2.4 8.4 6.9 13.1 l4.3 4.5 8.8 0 c4.9 0 9.1 -0.4 9.4 -0.9 0.3 -0.5 3 -1.4 5.8 -2.1 10.3 -2.2 13.8 -3.5 13.8 -4.7 0 -0.8 1.4 -1.6 3 -1.9 1.7 -0.4 3 -1.3 3 -2 0 -0.8 0.4 -1.4 1 -1.4 0.5 0 2.7 -1.6 4.9 -3.5 3 -2.7 4.7 -3.5 7.8 -3.5 4.2 0 9.3 1.9 9.3 3.5 0 0.6 1.6 2.8 3.5 4.9 1.9 2.2 3.5 4.3 3.5 4.8 0 0.4 0.6 0.8 1.3 0.8 0.6 0 2.6 2.3 4.2 5 3.1 5.1 4.7 6 6.8 3.7z m66.2 -14.7 c2 -1.1 4.3 -2 5.3 -2 1 0 2.5 -1.7 3.6 -4.2 1 -2.2 3 -5 4.2 -6.1 1.3 -1.1 2.4 -2.6 2.4 -3.2 0 -0.6 2.1 -3.2 4.6 -5.8 4.2 -4.3 4.9 -4.7 9.5 -4.7 4.5 0 4.9 0.2 4.9 2.4 0 1.4 0.5 2.8 1 3.1 0.6 0.3 1 1.9 1 3.5 0 1.6 0.9 4.5 2 6.5 1.1 2 2 4.7 2 6 0 1.4 0.3 2.5 0.8 2.5 1.3 0 8.6 -2.1 10.7 -3 2.6 -1.1 8.9 -2 19.3 -2.6 7.3 -0.5 8.4 -0.8 9.8 -2.9 2 -3.1 4.4 -12 4.4 -16.6 0 -1.9 0.4 -3.9 0.9 -4.5 0.5 -0.5 1.1 -2.9 1.4 -5.4 0.7 -6.9 2.7 -16.2 4.2 -19 0.7 -1.4 1.9 -5.5 2.5 -9 1.2 -6.4 3.3 -13.1 7 -22 1.1 -2.5 2.2 -6.8 2.5 -9.7 0.4 -2.9 1.3 -5.7 2 -6.3 0.8 -0.6 1.7 -2.4 2 -4 0.3 -1.6 1.3 -3.4 2.1 -4.1 0.8 -0.6 1.4 -1.8 1.4 -2.6 0 -2.3 5.6 -12.6 9.7 -17.9 2.2 -2.7 4.5 -6.4 5.1 -8.3 l1.2 -3.3 -3.3 0.7 c-1.7 0.4 -7.7 1 -13.2 1.4 -5.9 0.4 -11.6 1.4 -13.9 2.4 -2.6 1.2 -6.5 1.7 -12.2 1.7 l-8.4 0 0 2.9 c0 1.7 -0.4 3.3 -1 3.6 -0.5 0.3 -1 1.5 -1 2.5 0 1.1 -0.9 3.4 -2 5.2 -1.1 1.8 -2 4.5 -2 6.1 0 1.5 -0.4 3.5 -0.9 4.5 -1.1 2 -2.6 7.6 -4.1 15.2 -0.7 3 -1.6 7.1 -2.1 9.1 -0.5 2 -0.9 6.1 -0.9 9.2 0 3.1 -0.4 5.9 -1 6.2 -0.5 0.3 -1 2 -1 3.6 0 3.7 -2 5.9 -5.5 5.9 -2.6 0 -5.5 -2 -5.5 -3.7 0 -0.5 -1.6 -2.4 -3.5 -4.3 -1.9 -1.8 -4.6 -5.7 -6.1 -8.6 -1.5 -2.9 -3.2 -5.5 -3.9 -5.8 -0.7 -0.2 -1.5 -1.6 -1.9 -3.1 -0.6 -2.5 -7.5 -12.3 -8.6 -12.4 -0.3 -0.1 -1.1 2 -1.8 4.7 -0.7 2.6 -2 6.7 -2.8 9.2 -0.9 2.5 -2.8 8 -4.3 12.2 l-2.6 7.8 -5.2 0 c-2.9 0 -5.3 -0.4 -5.3 -1 0 -0.5 -0.8 -1 -1.7 -1 -1.2 -0.1 -2.8 -2.1 -4.6 -5.8 -3.9 -7.9 -7.9 -14.7 -10 -16.9 -0.9 -1.1 -1.7 -2.9 -1.7 -4 0 -1.1 -1.1 -3 -2.4 -4.3 -1.4 -1.2 -2.8 -3.5 -3.1 -5.1 -0.4 -1.5 -1.2 -3.3 -2 -3.9 -0.8 -0.6 -1.7 -2.6 -2 -4.3 -0.7 -3.6 -2.2 -8.1 -3.8 -11.4 -1 -2.3 -3.7 -3.2 -3.7 -1.3 0 0.6 -1.3 1 -3 1 -1.6 0 -3 0.5 -3 1 0 0.6 -0.9 1 -2 1 -1.1 0 -2 0.4 -2 0.9 0 1 -4.4 1.9 -12.8 2.8 l-5.3 0.5 0.7 3.1 c0.4 1.8 1.4 4.2 2.3 5.3 4.1 5.3 7.7 23.4 6.7 34.5 -0.4 4.1 -0.9 11.2 -1.2 15.9 -0.3 4.7 -1 8.9 -1.5 9.4 -1.7 1.8 -1 4.6 1.1 4.6 1.1 0 2 0.7 2 1.5 0 0.8 3.2 4.5 7 8.1 3.9 3.7 7 7.2 7 7.9 0 0.6 1.8 2.9 4 5.1 2.2 2.1 4 4.4 4 5 0 0.6 0.7 1.7 1.5 2.4 0.9 0.7 2.8 3.8 4.3 6.9 5 10.2 5.9 11 12.4 11.1 3.9 0 6.9 -0.6 9.3 -2z"/>
  <path d="M1290.5 209.6 c-9.2 -2.9 -8.5 -2.1 -8.5 -10.2 0 -4.1 0.4 -7.4 0.8 -7.4 0.4 0 1.4 -2 2.1 -4.5 0.9 -3 2 -4.6 3.4 -5.1 4 -1.1 7.7 -2.9 7.7 -3.6 0 -0.5 2.9 -0.8 6.5 -0.8 6.3 0 6.5 0.1 6.5 2.5 0 2.3 -0.4 2.5 -4 2.5 -2.2 0 -4 0.5 -4 1 0 0.6 -0.9 1 -2 1 -1.1 0 -2 0.5 -2 1 0 0.6 -1.1 1 -2.4 1 -2.6 0 -5.6 4.4 -5.6 8.2 0 1 -0.4 1.8 -1 1.8 -0.5 0 -1 1 -1 2.3 0 2.6 2.1 4 8.5 5.6 9.9 2.6 13.3 0.9 18 -9 3.9 -8.2 4 -13.3 0.4 -14.4 -1.2 -0.4 -1.9 -1.6 -1.9 -3.1 0 -1.9 0.5 -2.4 2.6 -2.4 4.5 0 6 1.6 7.4 7.8 l1.2 5.8 -4.4 9.7 c-3 6.8 -4.8 9.7 -6 9.7 -1 0 -1.8 0.5 -1.8 1 0 1.4 -15.6 1.1 -20.5 -0.4z"/>
  <path d="M1589 237.5 c-0.8 -0.9 -3.1 -2.3 -5.1 -3.2 -2 -0.8 -3.9 -2.3 -4.2 -3.4 -0.3 -1 -1.2 -1.9 -2.1 -1.9 -0.9 0 -2.5 -1.8 -3.6 -4 -1.1 -2.2 -2.4 -4 -2.9 -4 -2 0 -11.1 -16.5 -11.1 -20 0 -1.4 -0.8 -3.9 -1.9 -5.6 -2.9 -4.7 -3.2 -8.5 -4.2 -44.4 -1.4 -47.6 -1.4 -50.8 0.5 -55.9 0.9 -2.4 1.6 -5.7 1.6 -7.3 0 -3.1 2.7 -9.1 5.7 -12.4 1 -1.1 2.3 -2.9 2.9 -4 0.6 -1 2.4 -2.3 4.1 -2.9 1.6 -0.5 4.3 -2.2 6 -3.6 1.8 -1.5 5.5 -3.1 9.2 -3.9 3.4 -0.7 6.4 -1.7 6.7 -2.1 0.3 -0.5 1.6 -0.9 3 -0.9 1.3 0 2.4 -0.4 2.4 -1 0 -1.4 28.8 -1.3 33.1 0.1 1.9 0.7 4.3 2 5.5 3 1.1 1.1 2.9 1.9 4 1.9 1.1 0 3.8 1.8 5.9 4 2.1 2.2 4.5 4 5.2 4 0.7 0 1.3 0.6 1.3 1.3 0 0.7 1.4 2.6 3.1 4.3 6.3 5.9 14.9 19.3 14.9 23.2 0 1.2 0.5 2.4 1 2.7 0.6 0.3 1 1.8 1 3.3 0 1.5 1.4 5.4 3 8.7 2.6 5.1 3 7.1 3 13.7 0 4.5 -0.4 7.8 -1 7.8 -0.5 0 -1 2.3 -1 5 0 4.3 -0.3 5 -2 5 -1.1 0 -2 0.5 -2 1 0 0.6 -1.1 1 -2.4 1 -1.4 0 -2.8 0.5 -3.1 1 -0.3 0.6 -1.6 1 -2.8 1 -3 0 -17.1 4.2 -17.5 5.2 -0.2 0.4 -2.6 0.8 -5.2 0.8 -2.7 0 -5.1 0.4 -5.4 0.8 -0.3 0.5 -3 1.5 -6.1 2.2 -3 0.7 -5.5 1.7 -5.5 2.2 0 0.4 -0.9 0.8 -2 0.8 -2.6 0 -18.2 6.8 -19.6 8.6 -0.6 0.8 -1.9 1.4 -2.8 1.4 -0.9 0 -1.6 0.8 -1.6 1.9 0 1.1 -0.5 2.1 -1.2 2.3 -2 0.7 8.1 10.8 10.8 10.8 1.3 0 2.4 0.5 2.4 1 0 0.6 0.7 1 1.5 1 1.5 0 5.5 1.9 6.5 3.1 0.7 0.8 5.5 2 10.7 2.6 4.7 0.6 10.8 -1.1 13.8 -3.7 1.1 -0.9 3.5 -2.3 5.3 -3 1.7 -0.7 3.2 -1.6 3.2 -2.1 0 -0.5 1.5 -0.9 3.3 -0.9 3.4 0 8.7 -2 8.7 -3.2 0 -0.5 1.6 -0.8 3.5 -0.8 l3.5 0 0 9.8 c0 7.2 0.5 11.5 2 15.8 2.3 7 2.6 15.9 0.6 18 -0.8 0.8 -3.4 1.4 -6 1.4 -2.5 0 -4.6 0.5 -4.6 1 0 0.6 -1 1 -2.3 1 -1.3 0 -4.2 0.9 -6.5 2 -2.2 1.1 -5 2 -6.2 2 -1.1 0 -4.9 1.2 -8.3 2.7 -5.5 2.5 -7.9 2.9 -21.7 3.5 -8.5 0.4 -17.8 1 -20.6 1.3 -4 0.5 -5.3 0.3 -6.4 -1z m42.7 -8.1 c3.3 -1.4 8.7 -3.1 12 -4 3.2 -0.8 6.2 -1.9 6.8 -2.5 0.5 -0.5 1.9 -0.9 3.1 -0.9 1.3 0 2.6 -0.4 2.9 -1 0.3 -0.5 2.4 -1 4.6 -1 2.3 0 4.7 -0.7 5.6 -1.6 1.4 -1.4 1.3 -2.2 -0.6 -8.2 -1.4 -4.5 -2.1 -9.6 -2.2 -15.2 0 -4.7 -0.3 -7.9 -0.6 -7.2 -0.2 0.7 -2.2 1.2 -4.4 1.2 -2.1 0 -3.9 0.3 -3.9 0.8 0 0.8 -4.8 3.2 -6.5 3.2 -0.7 0 -1.9 0.8 -2.9 1.8 -2.8 3.2 -8.4 4.4 -17.6 3.9 -10.8 -0.6 -14.9 -1.5 -17.4 -3.8 -1.1 -1.1 -3 -1.9 -4.3 -1.9 -1.3 0 -2.3 -0.4 -2.3 -1 0 -0.5 -0.8 -1 -1.9 -1 -1 0 -4.1 -2.4 -7 -5.4 -4.8 -5.1 -5.1 -5.8 -5.1 -10.5 0 -2.8 0.5 -5.1 1 -5.1 0.6 0 1 -0.7 1 -1.5 0 -0.9 0.8 -1.8 1.8 -2.2 0.9 -0.3 2.4 -1.2 3.2 -1.8 0.8 -0.7 5.6 -3 10.5 -5 5 -2.1 10.4 -4.4 12 -5.1 1.7 -0.7 4.7 -1.5 6.8 -1.9 2 -0.4 4 -1.1 4.3 -1.6 0.3 -0.5 2.4 -0.9 4.8 -0.9 2.3 0 4.6 -0.4 5.2 -0.9 0.5 -0.6 5.2 -2.1 10.4 -3.5 8.6 -2.3 11.7 -3.2 17.3 -5.2 1.3 -0.5 1.7 -1.7 1.7 -5 0 -2.3 0.5 -4.6 1 -4.9 1.9 -1.2 1 -7.1 -2 -13 -1.6 -3.3 -3 -7.2 -3 -8.7 0 -1.5 -0.4 -3 -1 -3.3 -0.5 -0.3 -1 -1.5 -1 -2.7 0 -2.2 -3 -8.2 -7.3 -14.3 -4.6 -6.6 -19.9 -21.5 -22.1 -21.5 -1.1 0 -2.9 -0.8 -4 -1.9 -1.2 -1 -3.6 -2.3 -5.5 -3 -4.2 -1.4 -24.1 -1.5 -24.1 -0.1 0 0.6 -1.3 1 -2.8 1 -1.5 0 -3.2 0.4 -3.7 0.9 -0.6 0.5 -3.9 1.6 -7.5 2.5 -4.4 1 -7.2 2.4 -8.7 4.1 -1.2 1.4 -2.9 2.5 -3.8 2.5 -2.7 0 -5.5 2 -5.5 3.8 0 1 -0.9 2.4 -2.1 3.2 -3 2.1 -5.9 8.3 -5.9 12.5 0 2 -0.5 4.6 -1.2 5.8 -1.5 2.9 -1.3 73.3 0.3 82.7 0.6 3.6 2 8.1 3 10.1 1 2 1.9 4.7 1.9 6.1 0 3.5 8.6 18.8 10.6 18.8 0.6 0 1.9 1.8 2.9 4 1 2.2 2.4 4 3.1 4 0.8 0 2.1 1.1 3 2.5 0.9 1.4 2.7 2.8 4 3.1 1.3 0.3 2.8 1.1 3.3 1.8 0.7 0.8 5.5 1.1 17.3 0.8 14.4 -0.4 17 -0.7 22.5 -2.8z"/>
  <path d="M1600 138.9 c0 -2.4 2.2 -4.9 4.3 -4.9 0.9 0 1.7 -0.5 1.9 -1.1 0.7 -2.1 11.4 -4.3 22.6 -4.7 9.2 -0.3 11.2 -0.6 11.2 -1.9 0 -0.8 -1.9 -5.1 -4.1 -9.4 -2.9 -5.5 -4.7 -7.9 -6 -7.9 -1 0 -2.1 -0.4 -2.4 -1 -0.3 -0.5 -4.2 -1 -8.6 -1 -4.6 0 -7.9 0.4 -7.9 1 0 0.6 -1.7 1 -3.8 1 -3 0 -4.5 0.7 -7 3.3 -1.8 1.8 -3.2 4.1 -3.2 5 0 0.9 -0.4 1.7 -1 1.7 -0.5 0 -1 0.9 -1 1.9 0 1.1 -0.4 2.3 -1 2.6 -0.5 0.3 -1 4 -1 8.1 0 7.2 -0.1 7.4 -2.5 7.4 -2.5 0 -2.5 -0.1 -2.5 -9 0 -10.4 2 -16 7.9 -22.2 2.7 -2.9 4.3 -3.8 6.8 -3.8 1.8 0 3.3 -0.4 3.3 -1 0 -0.6 4.8 -1 12.4 -1 7.3 0 12.7 0.4 13.1 1 0.3 0.6 1.6 1 2.8 1 1.7 0 3.1 1.8 6.5 8.5 3.6 7.1 4.2 9.3 4.2 14.5 l0 6 -11.4 0 c-6.6 0 -11.7 0.4 -12.1 1 -0.3 0.6 -1.7 1 -3 1 -2.8 0 -7.5 2 -7.5 3.2 0 0.4 -0.9 0.8 -2 0.8 -1.1 0 -2 0.5 -2 1 0 0.6 -1.6 1 -3.5 1 -2.9 0 -3.5 -0.4 -3.5 -2.1z"/>
 </g>
</svg>